<?xml version="1.0" encoding="UTF-8"?>
<svg width="55px" height="56px" viewBox="0 0 55 56" version="1.1" xmlns="http://www.w3.org/2000/svg" xmlns:xlink="http://www.w3.org/1999/xlink">
    <!-- Generator: Sketch 58 (84663) - https://sketch.com -->
    <title>1</title>
    <desc>Created with Sketch.</desc>
    <g id="Page-1" stroke="none" stroke-width="1" fill="none" fill-rule="evenodd">
        <g id="1">
            <rect id="Rectangle" x="0" y="0" width="55" height="55"></rect>
            <rect id="Rectangle" fill="#EFF3FF" x="0" y="0" width="43" height="43"></rect>
            <path d="M5.01068799,39.0580191 C10.3184365,38.1993463 13.221759,35.483565 13.221759,31.0163873 L13.221759,29.5163873 L10.221759,29.5163873 L10.221759,31.0163873 C10.221759,34.013583 8.24035687,35.7038919 3.68759445,36.2123211 L2.01068799,36.3774009 L2.01068799,54.9665509 L17.6597189,54.9665509 L17.6597189,51.9665509 L5.01068799,51.9665509 L5.01068799,39.0580191 Z" id="Line-2" fill="#3167EB" fill-rule="nonzero"></path>
            <g id="008-draw" transform="translate(20.000000, 10.000000)" fill-rule="nonzero">
                <path d="M26.9563293,32.223877 L25.4126586,39.6986389 L2.53253169,45.4186707 L11.5188293,36.432373 C12.1555786,35.7956238 12.1539918,34.7637329 11.5156555,34.1297607 C10.8800965,33.4993592 9.85296636,33.5009461 9.21939084,34.1329346 L0.225158641,43.1275635 L5.94519043,20.2474365 L13.4362183,18.6875 L26.9563293,32.223877 Z" id="Path" fill="#FFCB5A"></path>
                <polygon id="Path" fill="#FBA61F" points="26.9563293 32.223877 26.1763611 36.0423889 9.61730957 19.4837342 13.4362183 18.6875"></polygon>
                <polygon id="Path" fill="#3167EB" points="35 2.88657986e-15 35 24.3083496 26.9595031 32.2203064 13.4346313 18.6954346 31.75 0"></polygon>
                <polygon id="Path" fill="#FFFFFF" points="12.7260742 30.1759644 15.1631775 27.7388611 17.4610291 30.0367127 15.0239258 32.473816"></polygon>
            </g>
        </g>
    </g>
</svg>