<?xml version="1.0" encoding="UTF-8"?>
<svg width="55px" height="55px" viewBox="0 0 55 55" version="1.1" xmlns="http://www.w3.org/2000/svg" xmlns:xlink="http://www.w3.org/1999/xlink">
    <!-- Generator: Sketch 58 (84663) - https://sketch.com -->
    <title>2</title>
    <desc>Created with Sketch.</desc>
    <g id="Page-1" stroke="none" stroke-width="1" fill="none" fill-rule="evenodd">
        <g id="2">
            <g id="Group-25">
                <rect id="Rectangle" x="0" y="0" width="55" height="55"></rect>
                <rect id="Rectangle" fill="#EFF3FF" x="0" y="0" width="43" height="43"></rect>
                <g id="Group-30" transform="translate(4.000000, 17.000000)" fill-rule="nonzero">
                    <polygon id="Path" fill="#FFCB5A" points="19.8046875 5.33203125 19.8046875 26 0 26 0 0 14.4726562 0 15.5644531 4.24023438"></polygon>
                    <polygon id="Path" fill="#FFCB5A" points="19.8046875 5.33203125 19.8046875 26 9.90234375 26 9.90234375 0 14.4726562 0 15.5644531 4.24023438"></polygon>
                    <polygon id="Path" fill="#FFAF00" points="19.8046875 5.33203125 14.4726562 0 14.4726562 5.33203125"></polygon>
                </g>
                <g id="009-gear" transform="translate(19.000000, 19.000000)" fill-rule="nonzero">
                    <path d="M36,21.5864868 L36,14.4135132 L33.2157898,14.4135132 C32.8241272,12.7521057 32.1665955,11.1923218 31.2907105,9.78140257 L33.2641297,7.80825804 L28.1920166,2.73614498 L26.2185974,4.70928952 C24.8076782,3.83367923 23.2481689,3.17587282 21.5864868,2.78448483 L21.5864868,0 L18,0 L16.5926514,18 L18,36 L21.5864868,36 L21.5864868,33.2157898 C23.2478943,32.8241272 24.8076782,32.1665955 26.2185974,31.2907105 L28.191742,33.2641297 L33.263855,28.1920166 L31.2907105,26.2185974 C32.1663208,24.8076782 32.8241272,23.2481689 33.2155152,21.5864868 L36,21.5864868 Z" id="Path" fill="#3167EB"></path>
                    <path d="M14.4135132,-5.68434189e-14 L14.4135132,2.78421019 C12.7521057,3.17587282 11.1923218,3.83340452 9.78140257,4.70928952 L7.80825804,2.73587034 L2.73614498,7.8079834 L4.70928952,9.78140257 C3.83367923,11.1923218 3.17587282,12.7518311 2.78448483,14.4135132 L0,14.4135132 L0,21.5864868 L2.78421019,21.5864868 C3.17587282,23.2478943 3.83340452,24.8076782 4.70928952,26.2185974 L2.73587034,28.191742 L7.8079834,33.263855 L9.78140257,31.2907105 C11.1923218,32.1663208 12.7518311,32.8238525 14.4135132,33.2155152 L14.4135132,36 L18,36 L18,-5.68434189e-14 L14.4135132,-5.68434189e-14 Z" id="Path" fill="#5385FF"></path>
                    <polygon id="Path" fill="#FFFFFF" points="12.9460144 24.6557922 7.7088318 18 12.9460144 11.3442078 14.6038513 12.6485596 10.3930664 18 14.6038513 23.3514404"></polygon>
                    <polygon id="Path" fill="#FFFFFF" points="23.0539856 24.6557922 21.3961487 23.3514404 25.6069336 18 21.3961487 12.6485596 23.0539856 11.3442078 28.2911682 18"></polygon>
                </g>
            </g>
        </g>
    </g>
</svg>